<svg xmlns="http://www.w3.org/2000/svg" width="19.518" height="17.375" viewBox="0 0 19.518 17.375">
  <g>
    <path fill="rgb(245,86,97)" fill-rule="evenodd" d="M14.80705261 11.37352753l1.14400482 1.17299652h-.00300598c.10101319.1036148.1579895.24230194.15900421.38700104v1.6610031c-.00054931.29784394-.24215698.53900147-.54000091.53900147h-3.59999848c0 1.2376709-1.00333404 2.24099732-2.24100494 2.24099732-1.23766327 0-2.24099731-1.00332642-2.24099731-2.24099732H3.88505554c-.29784393 0-.5394516-.24115753-.54000091-.53900146v-1.66400147c.00000763-.14518737.05712127-.28455352.15899658-.38800048l1.14400482-1.17299653V9.19452667C4.62322998 7.08872223 5.90002441 5.18586731 7.85805511 4.4105301c.18612671-.8837738.9658432-1.51638031 1.8690033-1.51638031.90315247 0 1.68286896.6326065 1.86899567 1.51638031 1.95842743.77500916 3.23566436 2.67794037 3.21099853 4.78399658v2.17900086zm.21900177 2.6780014H4.42005158v-.90600586L5.72005462 11.810524V9.19452667C5.68622589 7.28346252 7.01371003 5.6173935 8.88404846 5.223526v-.3789978c-.01509857-.30879212.14105225-.60081482.40624237-.7597351.26519013-.15892793.59633637-.15892793.8615265 0 .26518249.15892028.4213333.45094298.40623473.7597351v.38199615c1.86978913.39318085 3.19778443 2.05758667 3.16600037 3.96800232v2.61299896l1.30000305 1.33499909v.90599823l.0019989.00300598zm-5.30158233 2.23492432c-.62822724-.02824402-1.13256073-.5287552-1.16542054-1.15692902h2.32499695c-.0326004.6260376-.53362274 1.1257782-1.15957641 1.15692902zm0 0l.00157928.00006866h-.00299835l.00141907-.00006866z"/>
    <path fill="rgb(72,79,88)" fill-rule="evenodd" d="M13.8160553.7785263l.26099396-.63999938c.0245285-.0565796.07073974-.1009369.12828064-.12312317.05753326-.02218628.12155914-.02033997.17771911.00511932 3.02885437 1.35017395 5.02223206 4.30976105 5.13500214 7.62400055.00161743.0620346-.02189636.12208557-.06520844.1665268-.04330444.04444122-.10273742.06949615-.16478729.06947326h-.69000244c-.12509918.00003052-.22727966-.0999298-.23000336-.22499847-.10616302-2.85626221-1.8230133-5.40518189-4.4300003-6.57700348-.05595398-.02359772-.10025025-.06846619-.1231308-.12473297-.02288056-.05625916-.02246857-.11930084.00113678-.17526245zm-8.11399842 0L5.4410553.13852693C5.41631317.08213043 5.37008667.03795624 5.3126297.01580048c-.05745697-.02215577-.12138367-.02045441-.17757416.0047226C2.10636902 1.37088775.11306763 4.33036803.00005341 7.64452361c-.00134278.06195831.02226257.12184906.0655136.16622925.04325104.04438019.10251618.06951904.16448975.06977081h.68999481c.12509919.00003052.22727967-.0999298.23000336-.22499847.10593414-2.8563385 1.82286072-5.40537262 4.4300003-6.57700348.05596162-.02359772.10025025-.06846619.1231308-.12473297.02288056-.05625916.0224762-.11930084-.00112915-.17526245zm.61299897 1.49300385l.26299286.6399994c.04810333.11626433-.00569153.2496414-.12099457.29999541-1.7494812.81398774-2.90438843 2.52979279-3 4.45700074-.00325775.12467956-.10528565.2240448-.23000336.22399902h-.69000244c-.0623169-.00023651-.12190247-.02565003-.16521454-.07047272-.04330444-.04481506-.06667328-.10523224-.06478119-.16752624.10539246-2.38322449 1.53598023-4.50691223 3.70500183-5.5.11598206-.05116272.251503.00115966.3030014.1170044zm6.62499237.6399994l.26300049-.6399994c.0514984-.11584473.18701934-.16816711.3030014-.1170044 2.16932678.9927292 3.6000595 3.11663056 3.70500183 5.5.00216675.06237794-.0211029.12295533-.06447601.16783143-.04336548.04488373-.1031189.07020569-.16552735.07016754h-.69000244c-.12471771.00004578-.2267456-.09931946-.22999572-.22399902-.09693146-1.92676545-1.2514267-3.64195252-3-4.45700074-.11530304-.050354-.16910553-.18373108-.1210022-.29999542z"/>
  </g>
</svg>
