<svg xmlns="http://www.w3.org/2000/svg" width="20" height="17" viewBox="0 0 20 17">
  <path fill="rgb(245,86,97)" fill-rule="evenodd" d="M14.34373474 13.39212036c.7263031-.20498657 1.42118073-.49002075 2.06536102-.85986328l2.63217926.80603027c.14785767.04574585.31011963.00720215.42004395-.09976196.10991669-.10668945.14933777-.2638855.1028595-.40792847l-.77426148-2.38531494c.79249573-1.07766723 1.2101593-2.3055725 1.2101593-3.56439209C20.0000763 3.0866089 16.2617798 0 11.66671753 0c-4.16016388 0-7.6078415 2.53274536-8.2250824 5.8274231C1.37325287 6.90942383 0 8.79101563 0 10.92855835c0 1.11044311.3742981 2.19171143 1.0852127 3.14059448L.4358139 16.0687256c-.04639434.14382934-.0069809.30111694.10294342.40783691.1098175.10653687.27179718.1451416.41986084.09979248l2.23265839-.6836853c1.27159882.72515869 2.75685883 1.1072998 4.30867767 1.1072998 3.05094147 0 5.67422486-1.48562622 6.84378052-3.60784912zm-1.14582062.24822998l1.14582062-.24822998c.7263031-.20498657-1.64717865.32556152-1.14582062.24822998zM3.33657837 6.82467651C1.8128128 7.78970337.83329773 9.2697754.83329773 10.92855835c0 .9953003.36017609 1.96844482 1.04175568 2.81378174.08452606.10510254.11056518.24414062.06958007.37127685l-.47319793 1.45700074 1.64871978-.50488282c.04096222-.01272583.0834198-.0187683.12529755-.0187683.07691956 0 .15299988.02053832.21974182.06103515 1.17506409.70803833 2.57030487 1.08239746 4.03475952 1.08239746 2.41783905 0 4.53005982-1.025177 5.6979599-2.55004883-.50135803.07733154-1.01242065.12155152-1.5311966.12155152-4.59513854 0-8.3333435-3.08673096-8.3333435-6.88101197.10826111.02960205.15190125-.71099853.10826111-1.0534668 0 .22467042.00102997.33981324.00151062.3935547.00027466.03012084.00036621.04095458.00001526.0409851-.00205994.00009155-.01937103-.36550903-.10658264.56271362zm0 0c0 .0067749-.00275421.0152588-.00546265.02355957-.00487518.01498413-.00958252.02944947.0022583.03265381 0-.01898193.00320435-.03723144.00320435-.05621338zm12.79824066 4.92248536c.10340118-.06173707.22907257-.07769776.34513855-.04205323l2.04877472.62747193-.59741211-1.83990479c-.040802-.1255188-.01586151-.26239014.06589508-.3671875.7649231-.97576904 1.16938019-2.09777832 1.16938019-3.24459839 0-3.3477478-3.36456299-6.07125854-7.49987793-6.07125854-4.13532257 0-7.50003815 2.72351074-7.50003815 6.07125854 0 3.3477478 3.36471558 6.07147217 7.50003815 6.07147217 1.6162796 0 3.16121674-.41680908 4.4681015-1.2052002z"/>
</svg>
