<svg xmlns="http://www.w3.org/2000/svg" width="20.991" height="20.258" viewBox="0 0 20.991 20.258">
  <g>
    <path fill="rgb(78,84,94)" fill-rule="evenodd" d="M.6341147 11.09373485h2.111c.18502278.0183879.35343294.11477817.463.265.21469267.28209747.34941417.61682858.39.969.0710541.61331172.32190779 1.19191047.721 1.663.34538588.40960736.85032864.65078493 1.386.662.50228581-.00898307.9782444-.22631577 1.314-.6.3918255-.43517676.6510173-.97333802.747-1.551l.747-3.852c.04536356-.33854894.19213093-.65544097.421-.909l.054-.039.27-.154h.08c.1788064.00195926.34640822.08742508.453.231.2287046.28256096.36796985.62689428.4.989l1.337 9.164c.0640046.61402942.31141002 1.194561.71 1.666.33834119.4179125.847296.66070655 1.385.66070655.53770402 0 1.04665882-.24279406 1.385-.66070655.39888722-.47145697.64694086-1.0518746.712-1.666l.825-5.609c.03952503-.34597595.17032634-.67522251.379-.954.11064277-.1554071.28236877-.25618697.472-.277h1.974c.25728592-.00418537.48713064-.1618203.5837109-.40032776.09658026-.23850747.04117328-.51165108-.1407109-.69367224-.11534906-.12010781-.27447429-.18830434-.441-.189h-1.972c-.56406645.02249936-1.09042605.28932936-1.442.731-.360583.4644729-.5905125 1.0168561-.666 1.6l-.812 5.6c-.03285808.36190588-.17202948.70600714-.4.989-.10609983.14526227-.2723112.23461926-.452.243-.17327518-.01137127-.33373723-.09523266-.442-.231-.23357184-.28493986-.37669151-.6331629-.411-1l-1.323-9.164c-.07119128-.61406016-.32239188-1.19335242-.722-1.665-.34957151-.40254916-.85297387-.63863252-1.386-.65-.50535272.00843489-.98551312.22216042-1.33.592-.38597108.4360705-.63986115.97298557-.732 1.548l-.754 3.85c-.04912388.33075954-.18740583.64189393-.4.9l-.034.039-.349.2-.116-.028c-.14863777-.02978443-.28327726-.10782612-.383-.222-.2258613-.28623868-.36749166-.62975288-.409-.992-.06455401-.58914896-.29712457-1.1473183-.67-1.608-.343432-.44370186-.86718097-.71071114-1.428-.728h-2.105c-.35141501.0016533-.63510724.28758284-.634.639-.00323948.16985177.06225433.3338131.18162403.45468905.1193697.12087594.28249694.18842046.45237598.18731095z"/>
    <path fill="rgb(245,86,97)" fill-rule="evenodd" d="M20.3581147 9.03673485h-2.137c-.18602177-.01736542-.3561956-.1120677-.469-.261-.21663335-.2769174-.35324634-.6079013-.395-.957-.07348633-.60746952-.32781628-1.1788409-.73-1.64-.35374263-.405298-.86214441-.64243112-1.4-.653-.5058053.00825975-.98627043.22284342-1.33.594-.3953405.4262093-.65833328.95810093-.757 1.531l-.756 3.8c-.04561399.33680493-.1944336.65121255-.426.9l-.055.039-.273.152h-.084c-.17953343-.00182434-.34832277-.08585047-.458-.228-.22904095-.2773513-.36852032-.61768096-.4-.976l-1.358-9.046c-.06652972-.60816848-.31740965-1.18145877-.719-1.643C8.26245875.23725994 7.75044076 0 7.2111147 0c-.53932604 0-1.05134403.23725994-1.4.64873485-.40231472.4612908-.65390305 1.03460512-.721 1.643l-.835 5.535c-.04056889.34261564-.17327722.66782017-.384.941-.11364711.15440135-.28727074.25356297-.478.273h-2c-.35141716-.00110724-.6373467.28258498-.639.634.00048586.16802838.0686086.32878362.189.446.11846585.11878352.27923953.18568263.447.186h2c.56744678-.02022314 1.09900248-.28272428 1.46-.721.36353917-.45442527.59653367-.9992314.674-1.576l.822-5.53c.03235136-.35780549.1717407-.697567.4-.975.10906862-.144496.27711434-.23255488.458-.24.17414392.01082216.33600118.09338023.447.228.2359795.27971304.38109444.62470986.416.989l1.34 9.04c.07312887.60865273.32785523 1.18117724.731 1.643.3576098.39853101.86464475.63068058 1.4.641.50875147-.00706204.99363391-.21692578 1.347-.583.38901139-.42733463.64632193-.95792912.741-1.528l.759-3.8c.04972733-.32607753.18809767-.6322219.4-.885l.035-.038.353-.2.117.028c.14937385.02899768.28523127.10587823.387.219.22833069.28029974.37195163.61992512.414.979.0665607.58364011.30261113 1.13500386.679 1.586.3525818.44026096.88115983.7029039 1.445.718h2.137c.16867826.00079753.3307645-.06544575.45060066-.18415668.11983616-.11871093.18760557-.28016505.18839935-.44884332.00080486-.16803588-.0656598-.32940768-.18457436-.44813439-.11891456-.1187267-.28039125-.18493614-.44842564-.1838656z"/>
  </g>
</svg>
