<svg xmlns="http://www.w3.org/2000/svg" width="19.995" height="18" viewBox="0 0 19.995 18">
  <path fill="rgb(255,255,255)" fill-rule="evenodd" d="M.83329773 16.7726593V1.22718811c0-.22564697.18682098-.40879822.41682434-.40879822h11.24997711V0H1.25012207C.5607605 0 0 .55055237 0 1.22718811v15.5454712c0 .67684936.5607605 1.22724914 1.25012207 1.22724914h15.8332138c.68936158 0 1.25004578-.55039978 1.25004578-1.22724915V9.00012207h-.83329773v7.77253723c0 .22584534-.18684387.40908814-.41674804.40908814H1.25012207c-.23000336 0-.41682434-.1832428-.41682434-.40908814zM9.87802124 13.380188l9.84363556-9.66482544c.17638397-.17288208.27318573-.4026947.27318573-.64709473 0-.24455261-.09680176-.47442627-.27318573-.64724731L17.5342636.27330017c-.17628479-.1730957-.4174652-.2596283-.65911865-.2596283-.2418213 0-.48310852.0865326-.65920258.2596283L6.37212372 9.93800354c-.078125.07669067-.12202454.18057251-.12202454.28926086v2.86367798c0 .22615052.18636322.40901184.41664124.40901184h2.91664123c.11064148 0 .2164383-.0430603.29463959-.11976623zM16.94499969.85182189l2.1875763 2.14756776c.03858185.03790283.03858185.0996399 0 .13739014L18.125 4.12573242 15.79763794 1.8408661l1.00737762-.9890442c.0480423-.0471649.09186554-.0471649.13998413 0zM7.67266083 9.81825257l2.32736206 2.285141 7.5358963-7.39892579-2.32763672-2.28507995-7.53562164 7.39886474zm1.73819732 2.86366272H7.08339691v-2.28523254l2.32746124 2.28523254z"/>
</svg>
