<svg xmlns="http://www.w3.org/2000/svg" width="20" height="20" viewBox="0 0 20 20">
  <path fill="rgb(245,86,97)" fill-rule="evenodd" d="M11.0149231 7.07424927l5.65175628-5.65182495v1.91079712h.83322144V.41671753C17.49990082.18661499 17.31334686 0 17.0833435 0h-2.91681672v.8333435h1.91079712l-5.6516571 5.65176392c-.1172409.11715698-.27154541.17575073-.42572022.17575073-.15420532 0-.30848693-.05859375-.42582702-.17575073l-3.1425171-3.14260864c-.27977752-.28027344-.64756011-.42022705-1.01525878-.41986084-.3675232 0-.7350235.13995361-1.01472473.41986084L.42214203 7.32202148l.58918.5892334 3.97948455-3.97961426c.11743927-.11727905.27161407-.17581176.4258194-.17581176.1540985 0 .30838012.05853271.4258194.17581177l3.1424942 3.14260864c.27988433.28005981.64730072.42001343 1.01500701.41986084.36787415-.0001831.73519898-.14022827 1.0149765-.41986084zm6.90171814 11.25906372h-2.5c-.4601822 0-.83338166-.3730774-.83338166-.83319092V6.25003052c0-.46020508.37319947-.8333435.83338166-.8333435h2.5c.46028137 0 .83330535.37313842.83330535.8333435v11.25009155c0 .46011353-.37302398.83319092-.83330535.83319092zm-2.5-12.08328247h2.5v1.25012207h-2.5V6.25003052zm2.5 2.08346557h-2.5v9.16662598h2.5V8.33349609zm-13.3334198.83334351c.46030426 0 .83340454.3730774.83340454.83328247v7.5c0 .46011353-.37310028.83319092-.83340454.83319092H2.08324432c-.46020507 0-.83329773-.3730774-.83329773-.83319092v-7.5c0-.46020508.37309266-.83328247.83329773-.83328247h2.49997712zm-2.49997712 2.08325195h2.49997712v-1.24996948H2.08324432v1.24996948zm10.00003815 0c0-.46026611-.37319946-.83328247-.83329773-.83328247H8.75c-.46029663 0-.83339691.37301636-.83339691.83328247v6.25003052c0 .46011353.37310028.83319092.83339691.83319092h2.49998474c.46009827 0 .83329773-.3730774.83329773-.83319092v-6.25003052zm-.83329773 1.25003052H8.75v-1.25003052h2.49998474v1.25003052zm-6.6667633 5H2.08324432v-5.41690063h2.49997712v5.41690063zm4.16677856 0h2.49998474v-4.16677856H8.75v4.16677856zM0 20.00006104v-.83346558h19.99998474v.83346558H0z"/>
</svg>
