<svg xmlns="http://www.w3.org/2000/svg" width="21.711" height="19.755" viewBox="0 0 21.711 19.755">
  <g>
    <path fill="rgb(73,80,89)" fill-rule="evenodd" d="M19.73454285 12.76300049h1.13800048c.44999695.03617859.7971344.41125488.7984314.86270141.00131226.45144654-.34365845.82852173-.79343414.86729432h-7.05400086c.01700592.01499939.03600312.02700805.0530014.04400634l3.71700288 3.73100281c.33475494.3391571.33742523.88357544.0059967 1.22599793-.15822601.16377258-.37580109.25683593-.60352325.25816345-.22772217.00131225-.44635773-.0892334-.60647583-.25115967l-3.71900177-3.73200989c-.33554078-.33898926-.33776856-.88427734-.00499726-1.22599792.01799774-.0189972.03900147-.03300476.05899811-.05000305H8.99754333c.0189972.01600647.04000092.02999878.05799866.04800415.33259583.34295654.33037567.88876342-.00499725 1.2290039l-3.71800232 3.73100281c-.15944672.16233826-.37744904.25378418-.60500336.25378418-.22754669 0-.445549-.09144592-.60499573-.25378418-.33332824-.34147644-.33332824-.88653564 0-1.22801208l3.71900177-3.73100281c.0169983-.0169983.03599549-.0289917.05400086-.0439911H.83853912C.3708954 14.4821167 0 14.0984192 0 13.63049317c0-.46791076.37089539-.85160827.83853912-.86749267h1.14000702V1.7350006H.83853912C.3708954 1.71912384 0 1.33541871 0 .86750031S.37089539.01587677.83853912 0h20.03400421c.46765137.01587677.83853913.3995819.83853913.8675003s-.37088776.85162354-.83853913.86750031h-1.13800048v11.02799988zm-1.71199799 0V1.7350006H3.69054413v11.02799988h14.33200073z"/>
    <path fill="rgb(223,83,93)" fill-rule="evenodd" d="M6.4895424 9.381l2.727-2.469 2.781 2.7c.18259613.1767452.42687394.27538895.681.275h.065c.250742-.01705234.48545602-.1294002.656-.314l2.089-2.278c.16354478.10777318.35513798.16514682.551.165.53532897-.00385297.96632527-.4406675.963-.976l-.013-1.206c-.00495457-.26740775-.12043885-.52082153-.319-.7-.20239789-.17896663-.46859897-.26842174-.738-.248l-1.215.1c-.25735852.02087432-.49586682.14318627-.663.34-.30291173.35356954-.3067139.87404277-.009 1.232l-1.408 1.535-2.717-2.636c-.37087272-.35850657-.95603356-.36855787-1.339-.023l-3.406 3.08c-.19017947.1720161-.30372222.41290598-.31536623.66907426-.01164401.25616828.0795766.50636558.25336623.69492574.36593193.39139476.97790837.41763503 1.376.059z"/>
  </g>
</svg>
